<?xml version="1.0" encoding="iso-8859-1"?>
<!-- Generator: Adobe Illustrator 19.0.0, SVG Export Plug-In . SVG Version: 6.00 Build 0)  -->
<svg version="1.1" id="Layer_1" xmlns="http://www.w3.org/2000/svg" xmlns:xlink="http://www.w3.org/1999/xlink" x="0px" y="0px"
	 viewBox="0 0 460.893 460.893" style="enable-background:new 0 0 460.893 460.893;" xml:space="preserve">
<g id="XMLID_3237_">
	<path id="XMLID_1509_" style="fill:#EACB94;" d="M379.684,32.694c43.592,43.592,43.592,114.27,0,157.862s-114.27,43.592-157.862,0
		s-43.592-114.27,0-157.862S336.092-10.898,379.684,32.694z"/>
	<path id="XMLID_1502_" style="fill:#EDD0A2;" d="M359.684,52.694c32.547,32.547,32.547,85.315,0,117.862s-85.315,32.547-117.862,0
		s-32.547-85.315,0-117.862S327.138,20.148,359.684,52.694z"/>
	<path id="XMLID_1298_" style="fill:#E5BE80;" d="M210.867,45.418c3.281-4.443,6.931-8.7,10.955-12.724s8.281-7.674,12.724-10.955
		L390.64,177.833c-3.281,4.443-6.931,8.7-10.956,12.724c-4.024,4.024-8.281,7.674-12.724,10.955L210.867,45.418z"/>
	<path id="XMLID_1293_" style="fill:#CEA774;" d="M217.974,36.739c1.243-1.372,2.525-2.721,3.848-4.045
		c1.323-1.323,2.673-2.605,4.045-3.848l157.665,157.665c-1.243,1.372-2.525,2.721-3.848,4.045c-1.323,1.323-2.673,2.605-4.045,3.848
		L217.974,36.739z"/>
	<path id="XMLID_1300_" style="fill:#F2A447;" d="M447.265,337.704l-55.004,55.004l-55.004,55.005
		c-17.573,17.573-46.066,17.573-63.64,0l-7.398-7.398c-17.573-17.574-17.573-46.066,0-63.64l55.004-55.004l55.004-55.004
		c17.574-17.574,46.066-17.574,63.64,0l7.398,7.398C464.839,291.638,464.839,320.131,447.265,337.704z"/>
	<path id="XMLID_1411_" style="fill:#F2922A;" d="M392.261,392.708l-55.004,55.004c-17.574,17.574-46.066,17.574-63.64,0
		l-7.398-7.398c-17.574-17.574-17.574-46.066,0-63.64l55.004-55.004L392.261,392.708z"/>
	<path id="XMLID_1299_" style="fill:#F7CC8F;" d="M385.19,320.848l-32.401,32.388l0.007,0.007l-32.394,32.395
		c-3.905,3.905-10.237,3.905-14.142,0l-1.644-1.644c-3.905-3.905-3.905-10.237,0-14.142l13.805-13.805l-0.011-0.011l50.994-50.973
		c3.905-3.905,10.237-3.905,14.142,0l1.644,1.644C389.095,310.612,389.095,316.943,385.19,320.848z"/>
	<path id="XMLID_1295_" style="fill:#F7CC8F;" d="M298.366,393.531c3.905,3.905,3.905,10.237,0,14.142l-1.644,1.644
		c-3.905,3.905-10.237,3.905-14.142,0l-1.644-1.644c-3.905-3.905-3.905-10.237,0-14.142l1.644-1.644
		c3.905-3.905,10.237-3.905,14.142,0L298.366,393.531z"/>
	<path id="XMLID_1376_" style="fill:#F4D6AB;" d="M337.009,337.457l32.394-32.394c3.905-3.905,10.237-3.905,14.142,0l1.644,1.644
		c3.905,3.905,3.905,10.237,0,14.142l-32.394,32.394L337.009,337.457z"/>
	<path id="XMLID_3055_" style="fill:#B8B690;" d="M194.673,336.828l-7.398,7.398c-17.574,17.574-46.066,17.574-63.64,0
		l-55.004-55.004l-55.004-55.004c-17.573-17.573-17.573-46.066,0-63.64l7.398-7.398c17.573-17.573,46.066-17.573,63.64,0
		l55.004,55.005l55.004,55.004C212.246,290.762,212.246,319.255,194.673,336.828z"/>
	<path id="XMLID_3017_" style="fill:#A39C77;" d="M139.668,218.185l55.004,55.004c17.574,17.574,17.574,46.066,0,63.64l-7.398,7.398
		c-17.574,17.574-46.066,17.574-63.64,0L68.63,289.223L139.668,218.185z"/>
	<path id="XMLID_3074_" style="fill:#CCD3C2;" d="M156.276,280.508l-1.644,1.644c-3.905,3.905-10.237,3.905-14.142,0l-32.394-32.395
		l-32.395-32.395c-3.905-3.905-3.905-10.237,0-14.142l1.644-1.644c3.905-3.905,10.237-3.905,14.142,0l32.395,32.395l32.395,32.395
		C160.182,270.27,160.182,276.602,156.276,280.508z"/>
	<path id="XMLID_1415_" style="fill:#CCD3C2;" d="M162.525,290.045l1.644-1.644c3.905-3.905,10.237-3.905,14.142,0l1.644,1.644
		c3.905,3.905,3.905,10.237,0,14.142l-1.644,1.644c-3.905,3.905-10.237,3.905-14.142,0l-1.644-1.644
		C158.62,300.281,158.62,293.95,162.525,290.045z"/>
	<path id="XMLID_3075_" style="fill:#E7F0DF;" d="M108.096,249.757l-32.394-32.394c-3.905-3.905-3.905-10.237,0-14.142l1.644-1.644
		c3.905-3.905,10.237-3.905,14.142,0l32.394,32.394L108.096,249.757z"/>
</g>
<g>
</g>
<g>
</g>
<g>
</g>
<g>
</g>
<g>
</g>
<g>
</g>
<g>
</g>
<g>
</g>
<g>
</g>
<g>
</g>
<g>
</g>
<g>
</g>
<g>
</g>
<g>
</g>
<g>
</g>
</svg>
